<!--?xml version="1.0" standalone="no"?-->
              <svg id="sw-js-blob-svg" viewBox="0 0 100 100" xmlns="http://www.w3.org/2000/svg" version="1.1">
                    <defs> 
                        <linearGradient id="sw-gradient" x1="0" x2="1" y1="1" y2="0">
                            <stop id="stop1" stop-color="rgba(0, 153, 255, 1)" offset="0%"></stop>
                            <stop id="stop2" stop-color="rgba(31, 241.063, 251, 1)" offset="100%"></stop>
                        </linearGradient>
                    </defs>
                <path fill="url(#sw-gradient)" d="M19.3,-33.9C25.8,-29.7,32.3,-26,37.4,-20.5C42.5,-14.9,46.2,-7.5,45.1,-0.6C44.1,6.2,38.2,12.5,33.8,19.1C29.3,25.8,26.2,33,20.8,37.3C15.4,41.6,7.7,43.2,0.7,42C-6.3,40.7,-12.6,36.7,-18.6,32.7C-24.5,28.7,-30.2,24.7,-34.5,19.2C-38.8,13.8,-41.8,6.9,-42.3,-0.3C-42.8,-7.5,-40.9,-15,-37.6,-22.2C-34.3,-29.4,-29.6,-36.3,-23.1,-40.5C-16.7,-44.7,-8.3,-46.1,-1,-44.5C6.4,-42.8,12.8,-38.1,19.3,-33.9Z" width="100%" height="100%" transform="translate(50 50)" stroke-width="0" style="transition: all 0.3s ease 0s;"></path>
              </svg>